# AST/ASF file generated using VICON BodyLanguage
# -----------------------------------------------
:version 1.10
:name VICON
:units
  mass 1.0
  length 0.45
  angle deg
:documentation
   .ast/.asf automatically generated from VICON data using
   VICON BodyBuilder and BodyLanguage model FoxedUp or BRILLIANT.MOD
:root
   order TX TY TZ RX RY RZ
   axis XYZ
   position 0 0 0  
   orientation 0 0 0 
:bonedata
  begin
     id 1 
     name lhipjoint
     direction 0.578396 -0.714046 0.394458 
     length 2.21935 
     axis 0 0 0  XYZ
  end
  begin
     id 2 
     name lfemur
     direction 0.34202 -0.939693 0  
     length 6.39105  
     axis 0 0 20  XYZ
    dof rx ry rz
    limits (-160.0 20.0)
           (-70.0 70.0)
           (-60.0 70.0)
  end
  begin
     id 3 
     name ltibia
     direction 0.34202 -0.939693 0   
     length 6.99037   
     axis 0 0 20   XYZ
    dof rx
    limits (-10.0 170.0)
  end
  begin
     id 4 
     name lfoot
     direction 0.0582372 -0.160005 0.985397   
     length 2.06111   
     axis -90 7.62852e-016 20   XYZ
    dof rx rz
    limits (-45.0 90.0)
           (-70.0 20.0)
  end
  begin
     id 5 
     name ltoes
     direction 1.53556e-011 -4.21875e-011 1   
     length 1.04074   
     axis -90 7.62852e-016 20   XYZ
    dof rx
    limits (-90.0 20.0)
  end
  begin
     id 6 
     name rhipjoint
     direction -0.558179 -0.726269 0.40121   
     length 2.182  
     axis 0 0 0  XYZ 
  end
  begin
     id 7 
     name rfemur
     direction -0.34202 -0.939693 0   
     length 6.51172   
     axis 0 0 -20   XYZ
    dof rx ry rz
    limits (-160.0 20.0)
           (-70.0 70.0)
           (-70.0 60.0)
  end
  begin
     id 8 
     name rtibia
     direction -0.34202 -0.939693 0   
     length 7.02607   
     axis 0 0 -20   XYZ
    dof rx
    limits (-10.0 170.0)
 end
 begin
     id 9 
     name rfoot
     direction -0.0788856 -0.216737 0.973038   
     length 1.96734  
     axis -90 -7.62852e-016 -20   XYZ
    dof rx rz
    limits (-45.0 90.0)
           (-20.0 70.0)
  end
  begin
     id 10 
     name rtoes
     direction -1.53567e-011 -4.21783e-011 1   
     length 0.990825   
     axis -90 -7.62852e-016 -20   XYZ
    dof rx
    limits (-90.0 20.0)
  end
  begin
     id 11 
     name lowerback
     direction 0.00668177 0.999323 -0.0361741   
     length 1.7655   
     axis 0 0 0   XYZ
    dof rx ry rz
    limits (-20.0 45.0)
           (-30.0 30.0)
           (-30.0 30.0)
  end
  begin
     id 12 
     name upperback
     direction -0.00222086 0.99851 0.0545167   
     length 1.74912   
     axis 0 0 0   XYZ
    dof rx ry rz
    limits (-20.0 45.0)
           (-30.0 30.0)
           (-30.0 30.0)
  end
  begin
     id 13 
     name thorax
     direction -0.00733971 0.997496 0.0703443   
     length 1.75715   
     axis 0 0 0   XYZ
    dof rx ry rz
    limits (-20.0 45.0)
           (-30.0 30.0)
           (-30.0 30.0)
  end
  begin
     id 14 
     name lowerneck
     direction 0.0279797 0.994795 0.0979765   
     length 1.46939   
     axis 0 0 0   XYZ
    dof rx ry rz
    limits (-20.0 45.0)
           (-30.0 30.0)
           (-30.0 30.0)
  end
  begin
     id 15 
     name upperneck
     direction 0.00339187 0.976776 -0.214238   
     length 1.48018   
     axis 0 0 0   XYZ
    dof rx ry rz
    limits (-20.0 45.0)
           (-30.0 30.0)
           (-30.0 30.0)
  end
  begin
     id 16
     name head
     direction -0.00263506 0.996603 -0.0823096  
     length 1.4976  
     axis 0 0 0   XYZ
    dof rx ry rz
    limits (-20.0 45.0)
           (-30.0 30.0)
           (-30.0 30.0)
  end
  begin
     id 17 
     name lclavicle
     direction 0.894044 0.44508 -0.0508781  
     length 3.03024  
     axis 0 0 0   XYZ
    dof ry rz
    limits (-20.0 10.0)
           (0.0 20.0)
  end
  begin
     id 18 
     name lhumerus
     direction 1 -4.48961e-011 -2.39475e-018   
     length 4.4661   
     axis 180 -30 -90   XYZ
    dof rx ry rz
    limits (-60.0 90.0)
           (-90.0 90.0)
           (-90.0 90.0)
  end
  begin
     id 19
     name lradius
     direction 1 -4.48961e-011 9.29328e-028   
     length 3.41414   
     axis 180 -30 -90   XYZ
    dof rx
    limits (-10.0 170.0)
  end
  begin
     id 20
     name lwrist
     direction 1 -4.48985e-011 1.53461e-026   
     length 1.70707   
     axis -1.09697e-014 90 90   XYZ
    dof ry
    limits (-180.0 0.0)
 end
  begin
     id 21 
     name lhand
     direction 1 -4.48966e-011 3.06923e-026   
     length 0.328298   
     axis -1.95843e-014 90 90   XYZ
    dof rx rz
    limits (-90.0 90.0)
           (-45.0 45.0)
  end
  begin
     id 22 
     name lfingers
     direction 1 -4.48893e-011 6.13845e-026   
     length 0.264682   
     axis -3.91686e-014 90 90   XYZ
    dof rx
    limits (0.0 90.0)
  end
  begin
     id 23
     name lthumb
     direction 0.707107 -6.34876e-011 0.707107   
     length 0.380032   
     axis -90 45 2.85299e-015   XYZ
    dof rx rz
    limits (-45.0 45.0)
           (-45.0 45.0)
  end
  begin
     id 24 
     name rclavicle
     direction -0.936955 0.347862 -0.0332887   
     length 3.26927  
     axis 0 0 0   XYZ 
    dof ry rz
    limits (-10.0 20.0)
           (-20.0 0.0)
  end
  begin
     id 25 
     name rhumerus
     direction -1 -4.4896e-011 1.78637e-018  
     length 4.40431   
     axis 180 30 90   XYZ
    dof rx ry rz
    limits (-90.0 60.0)
           (-90.0 90.0)
           (-90.0 90.0)
  end
  begin
     id 26 
     name rradius
     direction -1 -4.48955e-011 9.34036e-027   
     length 3.04688   
     axis 180 30 90   XYZ
    dof rx
    limits (-10.0 170.0)
  end
  begin
     id 27 
     name rwrist
     direction -1 -4.49011e-011 1.53461e-026   
     length 1.52344   
     axis -1.09697e-014 -90 -90   XYZ
    dof ry
    limits (-180.0 0.0)
  end
  begin
     id 28
     name rhand
     direction -1 -4.48834e-011 3.06923e-026   
     length 0.500489   
     axis -1.95843e-014 -90 -90   XYZ
    dof rx rz
    limits (-90.0 90.0)
           (-45.0 45.0)
  end
  begin
     id 29
     name rfingers
     direction -1 -4.48967e-011 6.13845e-026   
     length 0.403507   
     axis -3.91686e-014 -90 -90   XYZ
    dof rx
    limits (0.0 90.0)
  end
  begin
     id 30
     name rthumb
     direction -0.707107 -6.34826e-011 0.707107   
     length 0.579358   
     axis -90 -45 -2.85299e-015   XYZ
    dof rx rz
    limits (-45.0 45.0)
           (-45.0 45.0)
  end
:hierarchy
  begin
    root lhipjoint rhipjoint lowerback
    lhipjoint lfemur
    lfemur ltibia
    ltibia lfoot
    lfoot ltoes
    rhipjoint rfemur
    rfemur rtibia
    rtibia rfoot
    rfoot rtoes
    lowerback upperback
    upperback thorax
    thorax lowerneck lclavicle rclavicle
    lowerneck upperneck
    upperneck head
    lclavicle lhumerus
    lhumerus lradius
    lradius lwrist
    lwrist lhand lthumb
    lhand lfingers
    rclavicle rhumerus
    rhumerus rradius
    rradius rwrist
    rwrist rhand rthumb
    rhand rfingers
  end

#!OML:ASF H:\IndianDance\Patient Classification 1\Patient 1\Session 1\dancer.ASF
:FULLY-SPECIFIED
:DEGREES
70
root 44.6825 12.9123 13.9322 5.12626 -27.8847 -3.40837
lowerback 4.3219 -0.576419 -0.0666584
upperback -5.28691 -0.766213 0.485673
thorax -7.95817 -0.364601 0.634256
lowerneck -8.70351 -13.7009 -8.31824
upperneck 18.2266 -19.8424 9.65881
head 8.94107 -9.20966 2.22706
rclavicle 2.28105e-014 -3.57812e-015
rhumerus 7.34301 62.705 -14.0875
rradius 113.114
rwrist -6.84944
rhand -32.299 38.3667
rfingers 7.12502
rthumb -5.53744 8.45906
lclavicle 2.28105e-014 -3.57812e-015
lhumerus 19.3218 -65.2922 -10.1447
lradius 118.675
lwrist 17.4272
lhand -52.6083 -8.8329
lfingers 7.12502
lthumb -25.0905 19.5387
rfemur -37.513 -46.8869 21.1521
rtibia 78.8536
rfoot -34.7626 -16.14
rtoes 3.06804
lfemur -37.9067 36.1659 -18.2421
ltibia 78.584
lfoot -36.8807 5.73698
ltoes 0.894476
71
root 44.6774 12.9182 13.9276 5.155 -27.8577 -3.42286
lowerback 4.34274 -0.563322 -0.0646332
upperback -5.30865 -0.748427 0.486882
thorax -7.99406 -0.35584 0.632928
lowerneck -8.70003 -13.7034 -8.3199
upperneck 18.1899 -19.8431 9.67108
head 8.92955 -9.21022 2.23213
rclavicle -1.65737e-014 -7.15625e-015
rhumerus 7.29815 62.7459 -14.0624
rradius 113.124
rwrist -6.88708
rhand -32.3568 38.2822
rfingers 7.12502
rthumb -5.59324 8.37604
lclavicle -1.65737e-014 -7.15625e-015
lhumerus 19.3188 -65.2664 -10.1415
lradius 118.671
lwrist 17.4483
lhand -52.6101 -8.85464
lfingers 7.12502
lthumb -25.0922 19.5167
rfemur -37.519 -46.8292 21.2387
rtibia 78.7797
rfoot -34.7477 -16.1903
rtoes 3.10825
lfemur -37.922 36.1885 -18.2112
ltibia 78.5241
lfoot -36.8275 5.64647
ltoes 0.985984
72
root 44.6721 12.9238 13.9231 5.1723 -27.8329 -3.42587
lowerback 4.36972 -0.550182 -0.0804324
upperback -5.32877 -0.731749 0.491745
thorax -8.03154 -0.346428 0.645602
lowerneck -8.70031 -13.7033 -8.32707
upperneck 18.1562 -19.8383 9.67846
head 8.91916 -9.20861 2.23691
rclavicle 1.18028e-014 1.19271e-015
rhumerus 7.27101 62.781 -14.023
rradius 113.133
rwrist -6.93448
rhand -32.4203 38.2184
rfingers 7.12502
rthumb -5.65451 8.31386
lclavicle 1.18028e-014 1.19271e-015
lhumerus 19.3091 -65.2423 -10.1219
lradius 118.667
lwrist 17.4887
lhand -52.6098 -8.88564
lfingers 7.12502
lthumb -25.0919 19.4858
rfemur -37.5172 -46.7747 21.3057
rtibia 78.711
rfoot -34.7359 -16.2362
rtoes 3.16213
lfemur -37.9252 36.2133 -18.1831
ltibia 78.465
lfoot -36.7831 5.51935
ltoes 1.17303
73
root 44.6669 12.929 13.9187 5.17966 -27.8082 -3.41913
lowerback 4.40169 -0.538171 -0.10546
upperback -5.34639 -0.717298 0.496991
thorax -8.06912 -0.337525 0.664126
lowerneck -8.70563 -13.6996 -8.33834
upperneck 18.1231 -19.8274 9.6865
head 8.90981 -9.20411 2.24297
rclavicle -2.51463e-014 -5.1684e-015
rhumerus 7.25885 62.8077 -13.9789
rradius 113.139
rwrist -6.99047
rhand -32.5009 38.1883
rfingers 7.12502
rthumb -5.73236 8.28582
lclavicle -2.51463e-014 -5.1684e-015
lhumerus 19.2986 -65.2182 -10.0953
lradius 118.661
lwrist 17.5464
lhand -52.6032 -8.91307
lfingers 7.12502
lthumb -25.0856 19.4592
rfemur -37.5092 -46.7252 21.3551
rtibia 78.6473
rfoot -34.7252 -16.2777
rtoes 3.22772
lfemur -37.9198 36.2365 -18.1605
ltibia 78.4057
lfoot -36.7401 5.40006
ltoes 1.34076
74
root 44.6619 12.9338 13.9146 5.17543 -27.7811 -3.39725
lowerback 4.43465 -0.526604 -0.140399
upperback -5.36059 -0.704514 0.498589
thorax -8.10354 -0.328961 0.68452
lowerneck -8.71876 -13.6924 -8.34781
upperneck 18.0896 -19.8114 9.69469
head 8.90107 -9.19671 2.24906
rclavicle 3.40667e-014 -2.78299e-015
rhumerus 7.23718 62.8226 -13.9525
rradius 113.139
rwrist -7.05124
rhand -32.618 38.1808
rfingers 7.12502
rthumb -5.84539 8.28144
lclavicle 3.40667e-014 -2.78299e-015
lhumerus 19.3049 -65.1927 -10.077
lradius 118.653
lwrist 17.6175
lhand -52.6064 -8.94802
lfingers 7.12502
lthumb -25.0887 19.4238
rfemur -37.4962 -46.6843 21.381
rtibia 78.5898
rfoot -34.7159 -16.3146
rtoes 3.30209
lfemur -37.9073 36.2534 -18.1512
ltibia 78.3456
lfoot -36.6975 5.29791
ltoes 1.46963
